<svg xmlns="http://www.w3.org/2000/svg" width="33" height="32" viewBox="0 0 33 32" fill="none">
  <g filter="url(#filter0_di_445_2011)">
    <path fill-rule="evenodd" clip-rule="evenodd" d="M4.49733 13.0165C3.94043 12.0984 3.62079 11.0271 3.62079 9.88294C3.62079 6.48058 6.44722 3.72241 9.93381 3.72241C12.2412 3.72241 14.2595 4.93043 15.3608 6.73372C16.462 4.93043 18.4803 3.72241 20.7877 3.72241C24.2743 3.72241 27.1007 6.48058 27.1007 9.88294C27.1007 11.0271 26.7811 12.0984 26.2242 13.0165H26.3262L16.3583 26.0941L5.75174 14.4979C5.37889 14.1759 5.04535 13.8116 4.75903 13.4126L4.39677 13.0165H4.49733Z" fill="url(#paint0_radial_445_2011)"/>
  </g>
  <path d="M14.584 22.4387C11.6305 19.3745 6.62261 12.565 5.7236 11.1417C4.39444 9.03736 5.94511 4.60717 10.1538 5.60396C7.79108 6.52692 5.36931 11.186 14.584 22.4387Z" fill="white"/>
  <path d="M14.584 22.4387C11.6305 19.3745 6.62261 12.565 5.7236 11.1417C4.39444 9.03736 5.94511 4.60717 10.1538 5.60396C7.79108 6.52692 5.36931 11.186 14.584 22.4387Z" stroke="white" stroke-width="0.221509"/>
  <defs>
    <filter id="filter0_di_445_2011" x="0.0766373" y="0.178261" width="32.3404" height="31.2322" filterUnits="userSpaceOnUse" color-interpolation-filters="sRGB">
      <feFlood flood-opacity="0" result="BackgroundImageFix"/>
      <feColorMatrix in="SourceAlpha" type="matrix" values="0 0 0 0 0 0 0 0 0 0 0 0 0 0 0 0 0 0 127 0" result="hardAlpha"/>
      <feOffset dx="0.886038" dy="0.886038"/>
      <feGaussianBlur stdDeviation="2.21509"/>
      <feComposite in2="hardAlpha" operator="out"/>
      <feColorMatrix type="matrix" values="0 0 0 0 0 0 0 0 0 0 0 0 0 0 0 0 0 0 0.15 0"/>
      <feBlend mode="normal" in2="BackgroundImageFix" result="effect1_dropShadow_445_2011"/>
      <feBlend mode="normal" in="SourceGraphic" in2="effect1_dropShadow_445_2011" result="shape"/>
      <feColorMatrix in="SourceAlpha" type="matrix" values="0 0 0 0 0 0 0 0 0 0 0 0 0 0 0 0 0 0 127 0" result="hardAlpha"/>
      <feOffset dx="-0.886038" dy="-1.10755"/>
      <feGaussianBlur stdDeviation="1.10755"/>
      <feComposite in2="hardAlpha" operator="arithmetic" k2="-1" k3="1"/>
      <feColorMatrix type="matrix" values="0 0 0 0 1 0 0 0 0 1 0 0 0 0 1 0 0 0 0.15 0"/>
      <feBlend mode="normal" in2="shape" result="effect2_innerShadow_445_2011"/>
    </filter>
    <radialGradient id="paint0_radial_445_2011" cx="0" cy="0" r="1" gradientUnits="userSpaceOnUse" gradientTransform="translate(9.25598 9.31535) rotate(54.0185) scale(20.1819 20.5078)">
      <stop stop-color="#FF0000"/>
      <stop offset="1" stop-color="#E81092"/>
    </radialGradient>
  </defs>
</svg>